<svg
  width="1em"
  height="1em"
  viewBox="0 0 24 24"
  fill="none"
  xmlns="http://www.w3.org/2000/svg"
>
  <path
    d="M11.0466 13.7446L11.6053 14.6077C11.7397 14.5575 11.8821 14.5325 12.0255 14.5338C12.1705 14.5324 12.3144 14.5575 12.4504 14.6077L13.0091 13.7492C12.7818 13.5194 12.6543 13.2093 12.6543 12.8862C12.6543 12.563 12.7818 12.2529 13.0091 12.0231L12.4596 11.1692C12.3211 11.2229 12.1741 11.2511 12.0255 11.2523C11.8803 11.2521 11.7364 11.2256 11.6007 11.1738L11.042 12.0323C11.2651 12.2615 11.3899 12.5687 11.3899 12.8885C11.3899 13.2083 11.2651 13.5154 11.042 13.7446H11.0466ZM12.0255 18.3C13.2795 18.3 14.5052 17.9283 15.5478 17.232C16.5904 16.5357 17.4031 15.546 17.8829 14.3881C18.3628 13.2302 18.4883 11.956 18.2437 10.7268C17.9991 9.49756 17.3952 8.36843 16.5086 7.4822C15.6219 6.59596 14.4922 5.99243 13.2624 5.74792C12.0326 5.50341 10.7578 5.6289 9.59932 6.10852C8.44084 6.58815 7.45067 7.40037 6.75402 8.44247C6.05737 9.48457 5.68554 10.7098 5.68554 11.9631C5.68554 13.6437 6.3535 15.2556 7.54248 16.444C8.73146 17.6324 10.3441 18.3 12.0255 18.3ZM7.06621 10.02C7.0658 9.81813 7.11501 9.61926 7.20952 9.44086C7.30403 9.26245 7.44094 9.10999 7.60822 8.99687C7.77549 8.88375 7.96801 8.81343 8.16884 8.7921C8.36968 8.77077 8.57268 8.79908 8.76 8.87455C8.94733 8.95001 9.11323 9.07032 9.24314 9.22488C9.37304 9.37945 9.46297 9.56355 9.50501 9.761C9.54705 9.95845 9.53992 10.1632 9.48424 10.3572C9.42856 10.5513 9.32604 10.7287 9.18569 10.8738L9.74443 11.7369C9.87715 11.6867 10.0181 11.6616 10.16 11.6631C10.298 11.6631 10.4352 11.6849 10.5664 11.7277L11.1297 10.8646C10.9928 10.7187 10.8936 10.5416 10.8408 10.3486C10.788 10.1557 10.7831 9.95277 10.8267 9.75753C10.8702 9.56228 10.9609 9.38063 11.0907 9.22838C11.2205 9.07613 11.3855 8.95788 11.5715 8.88394C11.7575 8.80999 11.9587 8.78259 12.1577 8.80411C12.3566 8.82562 12.5473 8.89541 12.7132 9.0074C12.879 9.11939 13.0149 9.27018 13.1092 9.44666C13.2034 9.62314 13.2531 9.81996 13.2538 10.02C13.2555 10.331 13.1363 10.6305 12.9213 10.8554L13.4939 11.7277C13.6204 11.685 13.753 11.6632 13.8864 11.6631C14.0312 11.6639 14.1747 11.6889 14.3113 11.7369L14.8654 10.8785C14.6435 10.6476 14.5195 10.3401 14.519 10.02C14.519 9.77627 14.5914 9.53802 14.7268 9.33537C14.8623 9.13272 15.0549 8.97477 15.2801 8.8815C15.5054 8.78823 15.7533 8.76382 15.9925 8.81137C16.2316 8.85892 16.4513 8.97629 16.6237 9.14863C16.7962 9.32097 16.9136 9.54054 16.9612 9.77959C17.0087 10.0186 16.9843 10.2664 16.891 10.4916C16.7977 10.7168 16.6397 10.9092 16.4369 11.0446C16.2342 11.18 15.9958 11.2523 15.752 11.2523C15.6122 11.2507 15.4735 11.2274 15.341 11.1831L14.7684 12.0462C14.9336 12.2203 15.0441 12.4391 15.0862 12.6754C15.1283 12.9117 15.1003 13.1551 15.0054 13.3756C14.9106 13.5961 14.7532 13.784 14.5527 13.916C14.3522 14.048 14.1173 14.1184 13.8772 14.1185C13.7387 14.1195 13.6011 14.0961 13.4708 14.0492L12.9213 14.9169C13.0583 15.0628 13.1575 15.2399 13.2103 15.4329C13.2631 15.6258 13.2679 15.8288 13.2244 16.024C13.1808 16.2193 13.0902 16.4009 12.9604 16.5532C12.8306 16.7054 12.6655 16.8237 12.4796 16.8976C12.2936 16.9715 12.0924 16.9989 11.8934 16.9774C11.6944 16.9559 11.5037 16.8861 11.3379 16.7741C11.1721 16.6622 11.0361 16.5114 10.9419 16.3349C10.8477 16.1584 10.798 15.9616 10.7972 15.7615C10.7975 15.4459 10.9181 15.1423 11.1343 14.9123L10.5756 14.0492C10.3899 14.1138 10.1915 14.1331 9.99682 14.1058C9.80214 14.0784 9.61678 14.0051 9.45611 13.8918C9.29543 13.7786 9.16406 13.6287 9.07287 13.4546C8.98168 13.2806 8.93329 13.0873 8.93173 12.8908C8.93061 12.5754 9.0533 12.2721 9.27343 12.0462L8.71008 11.1785C8.57833 11.2264 8.43932 11.2514 8.29911 11.2523C7.9725 11.2511 7.65961 11.1209 7.42866 10.89C7.19771 10.6592 7.06742 10.3465 7.06621 10.02ZM11.9978 0C9.76544 0.00148563 7.57769 0.625053 5.68029 1.80066C3.78289 2.97627 2.251 4.65736 1.25668 6.6551C0.262361 8.65285 -0.155004 10.8881 0.0514655 13.1099C0.257935 15.3316 1.08006 17.4518 2.4255 19.2323L4.51266 17.1415C3.22184 15.2558 2.6899 12.9529 3.02299 10.6924C3.35609 8.43189 4.52972 6.38006 6.30968 4.94637C8.08964 3.51267 10.345 2.80255 12.6257 2.95772C14.9064 3.11288 17.0447 4.12192 18.6139 5.78347C20.1831 7.44502 21.0677 9.63689 21.0913 11.9216C21.1149 14.2064 20.2756 16.416 18.741 18.1096C17.2065 19.8031 15.0894 20.856 12.8124 21.0581C10.5354 21.2602 8.26583 20.5967 6.45668 19.2L4.37875 21.2769C5.8664 22.497 7.62566 23.3417 9.50828 23.7399C11.3909 24.1382 13.3417 24.0783 15.1963 23.5653C17.0509 23.0523 18.755 22.1012 20.1649 20.7922C21.5749 19.4833 22.6493 17.8547 23.2978 16.0438C23.9462 14.2329 24.1497 12.2927 23.891 10.3868C23.6323 8.48089 22.9191 6.66503 21.8113 5.09227C20.7036 3.51952 19.2339 2.23594 17.526 1.34972C15.8181 0.463492 13.9221 0.000583092 11.9978 0Z"
    fill="currentColor"
  />
</svg>
