<svg
  width="1em"
  height="1em"
  viewBox="0 0 12 12"
  fill="none"
  xmlns="http://www.w3.org/2000/svg"
>
  <path
    fill-rule="evenodd"
    clip-rule="evenodd"
    d="M6 2.5C6.414 2.5 6.75 2.836 6.75 3.25V6.939L7.716 5.974C8.009 5.681 8.483 5.681 8.776 5.974C9.069 6.267 9.069 6.741 8.776 7.034L6.53 9.28C6.237 9.573 5.763 9.573 5.47 9.28L3.224 7.034C3.077 6.888 3.004 6.696 3.004 6.504C3.004 6.312 3.077 6.12 3.224 5.974C3.517 5.681 3.991 5.681 4.284 5.974L5.25 6.939V3.25C5.25 2.836 5.586 2.5 6 2.5ZM6 0C2.691 0 0 2.691 0 6C0 9.309 2.691 12 6 12C9.309 12 12 9.309 12 6C12 2.691 9.309 0 6 0Z"
    fill="currentColor"
  />
</svg>
