<svg
  width="1em"
  height="1em"
  viewBox="0 0 12 12"
  fill="none"
  xmlns="http://www.w3.org/2000/svg"
>
  <path
    fill-rule="evenodd"
    clip-rule="evenodd"
    d="M6 4.25C5.311 4.25 4.75 3.689 4.75 3C4.75 2.311 5.311 1.75 6 1.75C6.689 1.75 7.25 2.311 7.25 3C7.25 3.689 6.689 4.25 6 4.25ZM7 9.5C7 9.914 6.664 10.25 6.25 10.25C5.836 10.25 5.5 9.914 5.5 9.5V6.5H4.813C4.398 6.5 4.063 6.164 4.063 5.75C4.063 5.336 4.398 5 4.813 5H6.25C6.664 5 7 5.336 7 5.75V9.5ZM6 0C2.691 0 0 2.691 0 6C0 9.309 2.691 12 6 12C9.309 12 12 9.309 12 6C12 2.691 9.309 0 6 0Z"
    fill="currentColor"
  />
</svg>
