<svg id="Layer_1" data-name="Layer 1" xmlns="http://www.w3.org/2000/svg" viewBox="0 0 207.97 52.51"><defs><style>.cls-1{fill:#ef5632;}</style></defs><title>captum-logo</title><path d="M85.23,15.88a15.17,15.17,0,0,0-8.35-2.4c-6.53,0-11.33,4.66-11.33,12.82,0,7.92,4.56,12.86,11.43,12.86a14.47,14.47,0,0,0,8.4-2.69l.57,3a17.07,17.07,0,0,1-9,2.45c-8.69,0-14.5-6.05-14.5-15.56s6.1-15.69,14.5-15.69a18.55,18.55,0,0,1,9.26,2.44Z"/><path d="M103.28,38.68A8.54,8.54,0,0,1,96.85,42c-4,0-7-2.6-7-6.1,0-4,3.12-7.25,13.34-7.83V26.73c0-3.46-1.53-5.23-5.18-5.23a13.38,13.38,0,0,0-7.2,2.64l-.67-2.79a15.55,15.55,0,0,1,8.16-2.64c5.08,0,7.92,2.31,7.87,7.87V37.15c0,1.58.29,2.25,2.21,2.2l-.19,2.45c-2.88.19-4.47-1-4.81-3.12Zm0-8.64C95.7,30.9,93,32.58,93,35.51c0,2.36,1.92,3.84,4.51,3.84a7.79,7.79,0,0,0,5.71-2.88Z"/><path d="M122.19,18.86c6,0,9.84,4.7,9.84,11.37S127.52,42,121.18,42a14,14,0,0,1-5.37-1.16V52.51h-3V19.24l3-.62v2.92A9.44,9.44,0,0,1,122.19,18.86Zm-6.38,18.67a9.19,9.19,0,0,0,5.52,1.73c4.7,0,7.63-3.79,7.63-9s-2.78-8.69-7.25-8.69a8.87,8.87,0,0,0-5.9,2.45Z"/><path d="M143.6,42c-4.18,0-6-2.3-5.9-6.91l.33-13-3.36-.19.15-1.87,3.31-.77.14-5h2.83L141,19.43h7.34l-.14,2.64h-7.3l-.33,13.15c-.1,2.79.91,4.13,3.21,4.13A11.12,11.12,0,0,0,148,38.3l.53,2.59A12,12,0,0,1,143.6,42Z"/><path d="M156.13,19.34v14.2c0,3.85,1.53,5.57,4.75,5.57A9.73,9.73,0,0,0,167.65,36V19.34h3v22l-3,.63V38.39A11.14,11.14,0,0,1,160.06,42c-4.27,0-6.91-2.74-6.91-7.54V19.34Z"/><path d="M205,41.32V27.16c0-3.84-1.48-5.62-4.65-5.62a9.29,9.29,0,0,0-6.19,2.84c0,.28.09,1.44.09,2v15h-3V27.16c0-3.84-1.48-5.62-4.65-5.62a9.31,9.31,0,0,0-6.1,2.55V41.32h-3v-22l3-.63v3a10.43,10.43,0,0,1,7-3,6,6,0,0,1,5.95,3.65,11.26,11.26,0,0,1,7.78-3.65c4.18,0,6.77,2.74,6.77,7.59v15Z"/><path class="cls-1" d="M23.94,29.78l1.21,1.87a2.53,2.53,0,0,1,.91-.16,2.58,2.58,0,0,1,.92.16l1.21-1.86a2.66,2.66,0,0,1,0-3.74L27,24.2a2.66,2.66,0,0,1-.94.18,2.59,2.59,0,0,1-.92-.17l-1.21,1.86a2.66,2.66,0,0,1,0,3.71Zm2.12,9.87A13.73,13.73,0,1,0,12.33,25.92,13.73,13.73,0,0,0,26.06,39.65ZM15.32,21.71a2.67,2.67,0,1,1,4.59,1.85l1.21,1.87a2.47,2.47,0,0,1,.9-.16,2.84,2.84,0,0,1,.88.14l1.22-1.87a2.66,2.66,0,1,1,4.6-1.83A2.6,2.6,0,0,1,28,23.52l1.24,1.89a2.66,2.66,0,0,1,.85-.14,2.82,2.82,0,0,1,.92.16l1.2-1.86a2.69,2.69,0,0,1-.75-1.86,2.67,2.67,0,1,1,2.67,2.67,2.91,2.91,0,0,1-.89-.15L32,26.1a2.66,2.66,0,0,1-1.93,4.49,2.54,2.54,0,0,1-.88-.15L28,32.32a2.66,2.66,0,1,1-4.6,1.83,2.69,2.69,0,0,1,.73-1.84l-1.21-1.87a2.68,2.68,0,0,1-3.56-2.51,2.61,2.61,0,0,1,.74-1.83l-1.22-1.88a2.65,2.65,0,0,1-.89.16A2.68,2.68,0,0,1,15.32,21.71ZM26,0A26,26,0,0,0,5.27,41.67l4.52-4.53A19.67,19.67,0,1,1,14,41.6l-4.5,4.5A26,26,0,1,0,26,0Z"/></svg>