<svg width="18" height="18" viewBox="0 0 18 18" fill="none" xmlns="http://www.w3.org/2000/svg">
<path d="M1.25288 11.005C1.08788 10.364 0.999878 9.693 0.999878 9C0.999878 7.896 1.22388 6.843 1.62888 5.886C2.03288 4.929 2.61888 4.068 3.34288 3.343C4.06688 2.619 4.92888 2.033 5.88588 1.629C6.84288 1.224 7.89588 1 8.99988 1C10.1049 1 11.1569 1.224 12.1139 1.629C12.8489 1.94 13.5259 2.357 14.1289 2.86M16.7471 6.99805C16.9121 7.63805 17.0001 8.30905 17.0001 9.00005C17.0001 10.104 16.7761 11.157 16.3711 12.114C15.9671 13.071 15.3811 13.933 14.6571 14.657C13.9331 15.381 13.0711 15.967 12.1141 16.371C11.1571 16.776 10.1041 17 9.00007 17C7.89507 17 6.84307 16.776 5.88607 16.371C5.15207 16.061 4.47507 15.644 3.87207 15.141M12 4H15V1M6 14H3V17" stroke="#666666" stroke-width="2" stroke-linecap="round" stroke-linejoin="round"/>
</svg>
