<svg data-name="Layer 1" xmlns="http://www.w3.org/2000/svg" viewBox="0 0 207.97 52.51"><path d="M85.23 15.88a15.17 15.17 0 00-8.35-2.4c-6.53 0-11.33 4.66-11.33 12.82 0 7.92 4.56 12.86 11.43 12.86a14.47 14.47 0 008.4-2.69l.57 3a17.07 17.07 0 01-9 2.45c-8.69 0-14.5-6.05-14.5-15.56s6.1-15.69 14.5-15.69a18.55 18.55 0 019.26 2.44zm18.05 22.8A8.54 8.54 0 0196.85 42c-4 0-7-2.6-7-6.1 0-4 3.12-7.25 13.34-7.83v-1.34c0-3.46-1.53-5.23-5.18-5.23a13.38 13.38 0 00-7.2 2.64l-.67-2.79a15.55 15.55 0 018.16-2.64c5.08 0 7.92 2.31 7.87 7.87v10.57c0 1.58.29 2.25 2.21 2.2l-.19 2.45c-2.88.19-4.47-1-4.81-3.12zm0-8.64C95.7 30.9 93 32.58 93 35.51c0 2.36 1.92 3.84 4.51 3.84a7.79 7.79 0 005.71-2.88zm18.91-11.18c6 0 9.84 4.7 9.84 11.37S127.52 42 121.18 42a14 14 0 01-5.37-1.16v11.67h-3V19.24l3-.62v2.92a9.44 9.44 0 016.38-2.68zm-6.38 18.67a9.19 9.19 0 005.52 1.73c4.7 0 7.63-3.79 7.63-9s-2.78-8.69-7.25-8.69a8.87 8.87 0 00-5.9 2.45zM143.6 42c-4.18 0-6-2.3-5.9-6.91l.33-13-3.36-.19.15-1.87 3.31-.77.14-5h2.83l-.1 5.17h7.34l-.14 2.64h-7.3l-.33 13.15c-.1 2.79.91 4.13 3.21 4.13A11.12 11.12 0 00148 38.3l.53 2.59A12 12 0 01143.6 42zm12.53-22.66v14.2c0 3.85 1.53 5.57 4.75 5.57a9.73 9.73 0 006.77-3.11V19.34h3v22l-3 .63v-3.58a11.14 11.14 0 01-7.59 3.61c-4.27 0-6.91-2.74-6.91-7.54V19.34zM205 41.32V27.16c0-3.84-1.48-5.62-4.65-5.62a9.29 9.29 0 00-6.19 2.84c0 .28.09 1.44.09 2v15h-3V27.16c0-3.84-1.48-5.62-4.65-5.62a9.31 9.31 0 00-6.1 2.55v17.23h-3v-22l3-.63v3a10.43 10.43 0 017-3 6 6 0 015.95 3.65 11.26 11.26 0 017.78-3.65c4.18 0 6.77 2.74 6.77 7.59v15z"/><path d="M23.94 29.78l1.21 1.87a2.53 2.53 0 01.91-.16 2.58 2.58 0 01.92.16l1.21-1.86a2.66 2.66 0 010-3.74L27 24.2a2.66 2.66 0 01-.94.18 2.59 2.59 0 01-.92-.17l-1.21 1.86a2.66 2.66 0 010 3.71zm2.12 9.87a13.73 13.73 0 10-13.73-13.73 13.73 13.73 0 0013.73 13.73zM15.32 21.71a2.67 2.67 0 114.59 1.85l1.21 1.87a2.47 2.47 0 01.9-.16 2.84 2.84 0 01.88.14l1.22-1.87a2.66 2.66 0 114.6-1.83 2.6 2.6 0 01-.72 1.81l1.24 1.89a2.66 2.66 0 01.85-.14 2.82 2.82 0 01.92.16l1.2-1.86a2.69 2.69 0 01-.75-1.86 2.67 2.67 0 112.67 2.67 2.91 2.91 0 01-.89-.15L32 26.1a2.66 2.66 0 01-1.93 4.49 2.54 2.54 0 01-.88-.15L28 32.32a2.66 2.66 0 11-4.6 1.83 2.69 2.69 0 01.73-1.84l-1.21-1.87a2.68 2.68 0 01-3.56-2.51 2.61 2.61 0 01.74-1.83l-1.22-1.88a2.65 2.65 0 01-.89.16 2.68 2.68 0 01-2.67-2.67zM26 0A26 26 0 005.27 41.67l4.52-4.53A19.67 19.67 0 1114 41.6l-4.5 4.5A26 26 0 1026 0z" fill="#ef5632"/></svg>