<svg xmlns="http://www.w3.org/2000/svg" viewBox="0 0 900 900"><path d="M414.9 542.8l-178 178 54.1 53.9c22.6 22.5 3.5 64.3-30.2 66L84.2 850c-21 1.1-37-14.9-35.8-35.9l9.2-176.5c1.8-33.7 43.5-52.7 66-30.2l54.1 54.1 178-177.8m188.8-.2l178 178 53.9-54.1c22.6-22.6 64.3-3.6 66 30.2l9.2 176.5c1.1 21-14.9 37-35.8 35.9l-176.6-9.2c-33.7-1.8-52.7-43.5-30.2-66l54.1-54.1-177.8-178M358.6 416.5l-178-178-53.9 54.1c-22.6 22.6-64.3 3.6-66-30.2L51.4 85.9c-1.1-21 14.9-37 35.8-35.9l176.6 9.2c33.7 1.8 52.7 43.5 30.2 66l-54.1 54.1 177.8 178m64.4-.1l178-178-54.1-53.9c-22.6-22.5-3.6-64.3 30.2-66l176.5-9.2c21-1.1 37 14.9 35.8 35.9l-9.2 176.5c-1.8 33.7-43.5 52.7-66 30.2l-54.1-54.1-178 177.8" fill="#f15a24"/></svg>