<svg version="1.1" id="Layer_1" xmlns="http://www.w3.org/2000/svg" x="0" y="0" viewBox="0 0 900 900" xml:space="preserve"><style>.st0{fill:#f15a24}</style><path class="st0" d="M684.3 284.3l-58.6 58.6c97 97.1 97 254.4 0 351.5s-254.4 97-351.5 0-97-254.4 0-351.5l-.1-.1L429 188l20.9-20.9.1.1V50L215.7 284.3c-129.4 129.4-129.4 339.2 0 468.6s339.2 129.4 468.6 0 129.4-339.2 0-468.6z"/><path class="st0" d="M597.4 256.2c16.8-16.8 16.8-44.1 0-60.9s-44.1-16.8-60.9 0-16.8 44.1 0 60.9c16.8 16.9 44.1 16.9 60.9 0 0 .1 0 .1 0 0z"/></svg>